<svg width="22" height="23" viewBox="0 0 22 23" fill="none" xmlns="http://www.w3.org/2000/svg">
<path d="M6.41949 5.01966C7.30643 4.74761 8.22996 4.59329 9.18371 4.59329C10.1375 4.59329 11.061 4.74761 11.9479 5.01966C12.9279 4.30295 13.5723 3.15271 13.5723 1.84498V1.34861C13.5715 1.00497 13.2931 0.726562 12.9494 0.726562H5.41721C5.07358 0.726562 4.79517 1.00497 4.79517 1.34861V1.84577C4.79517 3.15271 5.43949 4.30295 6.41949 5.01966Z" fill="#03FF37"/>
<path d="M16.3448 2.95117C15.9494 2.95117 15.6289 3.27174 15.6289 3.66709C15.6289 4.44186 14.9988 5.07107 14.2241 5.07107H13.6052C13.4795 5.22539 13.3451 5.37175 13.2019 5.51176C13.7508 5.77267 14.2805 6.08051 14.7825 6.44721C16.0799 6.1871 17.0607 5.04005 17.0607 3.66788C17.0607 3.27174 16.7401 2.95117 16.3448 2.95117Z" fill="#03FF37"/>
<path d="M21.5375 15.8086C21.5375 16.3957 20.7421 16.9104 19.5441 17.1935C18.8926 17.3534 18.1194 17.4457 17.2914 17.4457C16.4689 17.4457 15.6957 17.3534 15.0442 17.1935C13.8462 16.9104 13.0508 16.3957 13.0508 15.8086C13.0508 14.9026 14.9503 14.166 17.2922 14.166C19.638 14.166 21.5375 14.9026 21.5375 15.8086Z" fill="#03FF37"/>
<path d="M19.8351 21.1288C19.0794 21.3181 18.1964 21.4191 17.2904 21.4191C16.3812 21.4191 15.4998 21.3173 14.7394 21.1256C14.0075 20.9482 13.4619 20.7159 13.0498 20.4598V21.3586C13.0498 21.9457 13.8397 22.4556 15.0321 22.7483C15.6836 22.9082 16.4623 23.0013 17.2904 23.0013C18.124 23.0013 18.8972 22.9082 19.5543 22.7491C20.7475 22.4556 21.5366 21.9457 21.5366 21.3594V20.459C21.1229 20.7167 20.5733 20.9506 19.8351 21.1288Z" fill="#03FF37"/>
<path d="M19.8176 18.3543C19.0635 18.5389 18.1861 18.6383 17.2904 18.6383C16.3979 18.6383 15.5221 18.5389 14.7585 18.3519C14.0139 18.1761 13.4634 17.9391 13.0498 17.6782V18.5826C13.0498 19.1697 13.8397 19.6795 15.0321 19.9675C15.6836 20.1322 16.4623 20.2252 17.2904 20.2252C18.124 20.2252 18.8972 20.133 19.5543 19.9675C20.7475 19.6795 21.5366 19.1697 21.5366 18.5826V17.6758C21.1213 17.9391 20.5677 18.1777 19.8176 18.3543Z" fill="#03FF37"/>
<path d="M11.8566 21.3574V18.5829V18.3124V15.5156C12.104 13.7528 14.7179 12.9725 17.2912 12.9725C17.494 12.9725 17.6961 12.9789 17.8973 12.9892C16.7638 9.18531 13.6257 5.78711 9.18388 5.78711C2.80986 5.78711 -0.893 12.784 0.185643 17.9385C1.05587 22.0956 4.79931 22.9993 9.18388 22.9993C10.3349 22.9993 11.4358 22.9293 12.4572 22.7606C11.968 22.2539 11.8566 21.7257 11.8566 21.3574Z" fill="#03FF37"/>
</svg>
