<svg width="15" height="25" viewBox="0 0 15 25" fill="none" xmlns="http://www.w3.org/2000/svg">
<path d="M1.87241 24.9242C2.18686 25.0781 2.55644 24.9904 2.76933 24.7253L14.4881 10.0281C14.6641 9.80776 14.6976 9.50664 14.5761 9.25273C14.4538 8.99951 14.1977 8.83789 13.9159 8.83789H9.24164L13.1062 1.06001C13.2199 0.833251 13.2078 0.563623 13.074 0.347607C12.9403 0.131592 12.705 0 12.4511 0H3.66201C3.32583 0 3.0333 0.228906 2.95175 0.555029L0.0220679 12.3226C-0.0330102 12.5414 0.0163549 12.7732 0.155124 12.9506C0.293894 13.1287 0.507029 13.2324 0.732321 13.2324H4.18842L1.48691 24.0901C1.40322 24.4242 1.56342 24.7711 1.87241 24.9242Z" fill="#03FF37"/>
</svg>
