<svg width="19" height="26" viewBox="0 0 19 26" fill="none" xmlns="http://www.w3.org/2000/svg">
<path d="M16.3243 10.0404C16.2549 9.95348 16.1708 9.97056 16.1267 9.9883C16.0898 10.0033 16.0052 10.0511 16.0169 10.171C16.031 10.3149 16.0389 10.4617 16.0404 10.6072C16.0467 11.211 15.8045 11.8025 15.3759 12.2301C14.9501 12.655 14.39 12.8839 13.7936 12.8772C12.979 12.8668 12.3034 12.4419 11.8397 11.6485C11.4564 10.9924 11.6249 10.1462 11.8033 9.25027C11.9077 8.72586 12.0156 8.18357 12.0156 7.66745C12.0156 3.64877 9.314 1.33028 7.7036 0.30593C7.67029 0.284779 7.63859 0.277344 7.61051 0.277344C7.56484 0.277344 7.52866 0.297038 7.51083 0.309096C7.47626 0.332508 7.42095 0.385863 7.43873 0.480315C8.05428 3.74905 6.2183 5.71501 4.2745 7.79636C2.27091 9.94178 0 12.3735 0 16.759C0 21.8548 4.14568 26.0005 9.24146 26.0005C13.4371 26.0005 17.1364 23.0753 18.2372 18.887C18.9879 16.0312 18.2013 12.3934 16.3243 10.0404ZM9.47201 24.0279C8.19601 24.0861 6.9825 23.6285 6.05562 22.7422C5.13868 21.8654 4.61277 20.6418 4.61277 19.3851C4.61277 17.0268 5.51448 15.2955 7.93978 12.9971C7.97947 12.9595 8.02012 12.9476 8.05554 12.9476C8.08764 12.9476 8.11547 12.9574 8.13461 12.9665C8.17496 12.986 8.24127 13.0341 8.23233 13.1382C8.14562 14.1473 8.14712 14.9849 8.23675 15.6277C8.46585 17.2698 9.66795 18.3732 11.2282 18.3732C11.9931 18.3732 12.7218 18.0853 13.2799 17.5625C13.3446 17.5018 13.417 17.5096 13.4447 17.5155C13.4814 17.5234 13.5306 17.5459 13.5564 17.6081C13.7878 18.1668 13.9061 18.7599 13.9079 19.3707C13.9153 21.8287 11.9253 23.918 9.47201 24.0279Z" fill="#03FF37"/>
</svg>
