<svg width="49" height="48" viewBox="0 0 49 48" fill="none" xmlns="http://www.w3.org/2000/svg">
<g clip-path="url(#clip0_889_13769)">
<path d="M28.6739 34.9532V31.8227H25.5434H22.413V28.6923H25.5434V25.5619H26.587H28.6739V13.0401H26.587H25.5434V9.9097H22.413V6.7793H9.89131V9.9097H6.76091V13.0401H3.63041V25.5619H6.76091V28.6923H9.89131V31.8227H3.63041V34.9532H0.5V41.214V44.3445H3.63041H28.6739H31.8043V41.214V34.9532H28.6739Z" fill="#E76EF2"/>
<path d="M45.3683 31.8262V28.6958H39.1074V25.5654H42.2378V22.4349H45.3683V9.91316H42.2378V6.78275H39.1074V3.65234H26.5857V6.78275H29.7161V9.91316H31.8031H32.8465V31.8262H34.9335V38.0871V40.1741V41.2175H45.3683H48.4987V38.0871V31.8262H45.3683Z" fill="#E76EF2"/>
</g>
<defs>
<clipPath id="clip0_889_13769">
<rect width="48" height="48" fill="white" transform="translate(0.5)"/>
</clipPath>
</defs>
</svg>
