<svg width="16" height="16" viewBox="0 0 16 16" fill="none" xmlns="http://www.w3.org/2000/svg">
<g clip-path="url(#clip0_233_3839)">
<path d="M11.3042 8.69571C10.4397 8.69571 9.73901 9.39643 9.73901 10.2609C9.73901 11.1254 10.4397 11.8261 11.3042 11.8261H15.9999V8.69571H11.3042ZM11.3042 10.7826C11.0161 10.7826 10.7825 10.5491 10.7825 10.2609C10.7825 9.97274 11.0161 9.73915 11.3042 9.73915C11.5924 9.73915 11.826 9.97274 11.826 10.2609C11.826 10.5491 11.5924 10.7826 11.3042 10.7826Z" fill="black"/>
<path d="M11.3043 7.65221H13.913V6.08699C13.913 5.2239 13.2109 4.52177 12.3478 4.52177H0.52175C0.233719 4.52177 0 4.75546 0 5.04349V15.4783C0 15.7663 0.233719 16 0.52175 16H12.3478C13.2109 16 13.913 15.2979 13.913 14.4348V12.8696H11.3043C9.86584 12.8696 8.69566 11.6994 8.69566 10.2609C8.69566 8.8224 9.86584 7.65221 11.3043 7.65221Z" fill="black"/>
<path d="M14.4346 4.52177H14.4297C14.7587 4.95843 14.9564 5.49934 14.9564 6.08699V7.65221H15.9998V6.08699C15.9998 5.2239 15.2977 4.52177 14.4346 4.52177Z" fill="black"/>
<path d="M14.9564 12.8695V14.4348C14.9564 15.0224 14.7588 15.5633 14.4297 16H14.4346C15.2977 16 15.9998 15.2979 15.9998 14.4348V12.8695H14.9564Z" fill="black"/>
<path d="M8.54327 0.152927C8.33949 -0.0508538 8.0093 -0.0508538 7.80549 0.152927L7.34692 0.61149L10.2138 3.4783H11.8687L8.54327 0.152927Z" fill="black"/>
<path d="M5.41155 0.152859C5.20776 -0.0509531 4.87761 -0.0509531 4.6738 0.152859L1.34839 3.47823H8.73698L5.41155 0.152859Z" fill="black"/>
</g>
<defs>
<clipPath id="clip0_233_3839">
<rect width="16" height="16" fill="white"/>
</clipPath>
</defs>
</svg>
