<?xml version="1.0" encoding="UTF-8"?>
<svg id="Layer_1" xmlns="http://www.w3.org/2000/svg" xmlns:xlink="http://www.w3.org/1999/xlink" version="1.1" viewBox="0 0 44 44">
  <!-- Generator: Adobe Illustrator 29.2.1, SVG Export Plug-In . SVG Version: 2.1.0 Build 116)  -->
  <defs>
    <style>
      .st0 {
        fill: none;
      }

      .st1 {
        fill: #a9c6d8;
      }

      .st2 {
        fill: #fff;
      }

      .st3 {
        fill: #c8daea;
      }

      .st4 {
        fill: #36ade1;
      }

      .st5 {
        clip-path: url(#clippath);
      }
    </style>
    <clipPath id="clippath">
      <rect class="st0" x="-.3" y="0" width="44" height="44"/>
    </clipPath>
  </defs>
  <rect class="st4" x="-.5" y="0" width="45" height="44"/>
  <g class="st5">
    <g>
      <path class="st3" d="M14.6,23.6l2.6,7.2s.3.7.7.7,5.5-5.4,5.5-5.4l5.8-11.2-14.5,6.8v1.9h-.1Z"/>
      <path class="st1" d="M18,25.5l-.5,5.3s-.2,1.6,1.4,0,3.2-2.9,3.2-2.9"/>
      <path class="st2" d="M14.6,23.9l-5.4-1.7s-.6-.3-.4-.9c0-.1.1-.2.4-.4,1.2-.8,22-8.3,22-8.3,0,0,.6-.2.9,0,0,0,.2,0,.2.1,0,0,0,.1,0,.2v1c0,2-3.9,17.3-3.9,17.3,0,0-.2.9-1,.9h-.6c-.2,0-.4-.2-.5-.3-1.6-1.4-7.1-5.1-8.3-5.9h0v-.2s9.6-8.5,9.9-9.4c0,0,0-.1-.2,0-.6.2-11.7,7.2-12.9,8h-.3v-.4Z"/>
    </g>
  </g>
</svg>