<svg width="138" height="28" viewBox="0 0 138 28" fill="none" xmlns="http://www.w3.org/2000/svg">
<path d="M7.36148 10.5407C7.67812 10.5402 8.01829 10.6319 8.24862 10.5122C8.45977 10.4024 8.54327 10.0584 8.69869 9.82826C9.90022 8.04872 11.5601 6.88791 13.6616 6.53199C15.9734 6.14043 18.1402 6.65884 19.9779 8.16855C21.3705 9.31262 22.1847 10.8423 22.5613 12.5957C23.4587 16.774 20.6789 20.416 17.1629 21.3587C14.6199 22.0405 12.2875 21.5264 10.216 19.8964C9.33551 19.2036 8.65324 18.3488 8.21876 17.3051C8.18949 17.2348 8.07155 17.1583 7.99418 17.1576C6.97113 17.1483 5.94792 17.1573 4.92488 17.1475C4.74733 17.1458 4.66914 17.2174 4.59913 17.3612C3.60447 19.4044 2.6064 21.446 1.60859 23.4876C1.07295 24.5836 0.536232 25.6791 0 26.7747C0.0124702 26.7988 0.0249367 26.8228 0.0374031 26.8469C0.162952 26.7947 0.312124 26.7702 0.410519 26.6863C1.99055 25.3377 3.5641 23.9815 5.13923 22.6271C5.18179 22.5905 5.22554 22.5553 5.28351 22.5072C5.52003 22.733 5.75253 22.9547 5.9847 23.1767C7.60492 24.7259 9.46035 25.8667 11.6427 26.4434C13.1141 26.8322 14.6072 26.9484 16.1226 26.8279C18.7995 26.6152 21.1707 25.6502 23.2646 23.973C25.6304 22.0779 27.0898 19.6328 27.7163 16.6832C28.0114 15.2937 28.0746 13.8811 27.9137 12.4727C27.6458 10.1293 26.784 8.01332 25.3106 6.16503C23.4867 3.87713 21.1698 2.32266 18.3338 1.5636C17.1782 1.25433 15.9985 1.10112 14.8049 1.09884C10.1846 1.09001 5.56419 1.09534 0.943815 1.0954C0.881077 1.0954 0.818336 1.0954 0.726843 1.0954C0.952393 1.65 1.16609 2.1798 1.38306 2.70826C2.42338 5.242 3.46595 7.77483 4.50244 10.3101C4.57236 10.4812 4.65448 10.5501 4.85251 10.5466C5.68049 10.5321 6.50888 10.5407 7.36148 10.5407Z" fill="#00FD15"/>
<circle cx="3.9955" cy="3.9955" r="3.9955" transform="matrix(-1 0 0 1 19.1045 9.95898)" fill="white"/>
<path d="M37.4167 13.7757C37.4167 7.96734 41.3267 3.51901 47.6733 3.51901C53.255 3.51901 56.9383 6.57901 57.5333 11.509H53C52.5467 8.87401 50.45 7.48568 47.73 7.48568C44.245 7.48568 41.95 9.66734 41.95 13.7757C41.95 17.9123 44.245 20.094 47.73 20.094C50.45 20.094 52.5467 18.6773 53 16.0423H57.5333C56.9383 21.0007 53.255 24.0607 47.6733 24.0607C41.3267 24.0607 37.4167 19.6123 37.4167 13.7757ZM67.4511 3.80234C72.7778 3.80234 78.3311 5.19068 78.3311 13.7757C78.3311 22.389 72.7778 23.7773 67.4511 23.7773L60.0844 23.7773V3.80234L67.4511 3.80234ZM67.4511 19.8107C70.9928 19.8107 73.7978 19.5273 73.7978 13.7757C73.7978 8.05234 70.9928 7.76901 67.4511 7.76901H64.6178V19.8107H67.4511ZM80.6018 16.354V3.80234L85.1351 3.80234V14.3423C85.1351 17.9123 85.4468 20.094 89.6118 20.094C93.7768 20.094 94.1168 17.9123 94.1168 14.3423V3.80234L98.6501 3.80234V16.354C98.6501 21.3407 95.5334 24.0607 89.6118 24.0607C83.6901 24.0607 80.6018 21.3407 80.6018 16.354ZM118.796 18.2807C118.796 21.709 116.388 24.0607 110.239 24.0607C103.043 24.0607 100.351 21.114 100.351 16.0707H104.884C104.884 19.1307 106.414 20.094 110.381 20.094C113.299 20.094 114.263 19.414 114.263 18.3373C114.263 16.8923 111.826 16.2407 108.908 15.249C104.686 13.8323 101.258 12.699 101.258 8.78901C101.258 5.38901 103.949 3.51901 109.106 3.51901C115.226 3.51901 117.974 6.63568 117.974 10.6023H113.441C113.441 8.16568 111.571 7.48568 109.106 7.48568C107.066 7.48568 105.791 7.93901 105.791 8.95901C105.791 9.86568 106.273 10.2057 109.474 11.2823C113.158 12.529 118.796 14.1157 118.796 18.2807ZM136.097 3.80234V7.76901H129.58V23.7773H125.047V7.76901H118.502V3.80234L136.097 3.80234Z" fill="white"/>
</svg>
