<svg width="25" height="25" viewBox="0 0 25 25" fill="none" xmlns="http://www.w3.org/2000/svg">
<path d="M12.5253 11.6615C13.2583 11.6615 13.9748 11.4441 14.5842 11.0369C15.1936 10.6297 15.6686 10.0509 15.9491 9.37371C16.2295 8.69653 16.3029 7.95139 16.1598 7.23252C16.0168 6.51365 15.6638 5.85335 15.1454 5.33513C14.6271 4.8169 13.9667 4.46402 13.2478 4.32112C12.5289 4.17821 11.7838 4.25171 11.1067 4.5323C10.4296 4.81289 9.85085 5.28799 9.44375 5.89749C9.03664 6.507 8.81943 7.22354 8.81958 7.9565C8.82077 8.93889 9.2116 9.8807 9.90633 10.5753C10.6011 11.2699 11.5429 11.6605 12.5253 11.6615ZM12.5253 5.75075C12.9616 5.75075 13.388 5.88012 13.7508 6.12249C14.1135 6.36486 14.3962 6.70935 14.5632 7.1124C14.7301 7.51545 14.7738 7.95895 14.6887 8.38682C14.6036 8.8147 14.3935 9.20772 14.085 9.5162C13.7766 9.82468 13.3835 10.0348 12.9557 10.1199C12.5278 10.205 12.0843 10.1613 11.6812 9.99435C11.2782 9.8274 10.9337 9.54468 10.6913 9.18195C10.4489 8.81922 10.3196 8.39276 10.3196 7.9565C10.3204 7.37174 10.553 6.81116 10.9665 6.39768C11.38 5.98419 11.9406 5.75155 12.5253 5.75075Z" fill="#03FF37"/>
<path d="M5.5248 13.8387C6.08848 13.8387 6.6395 13.6715 7.10818 13.3584C7.57686 13.0452 7.94215 12.6001 8.15786 12.0793C8.37357 11.5586 8.43001 10.9855 8.32004 10.4327C8.21007 9.87982 7.93864 9.372 7.54006 8.97342C7.14148 8.57484 6.63366 8.3034 6.08081 8.19344C5.52797 8.08347 4.95493 8.13991 4.43416 8.35562C3.91339 8.57133 3.46828 8.93662 3.15512 9.4053C2.84195 9.87398 2.6748 10.425 2.6748 10.9887C2.6748 11.7445 2.97507 12.4694 3.50955 13.0039C4.04403 13.5384 4.76894 13.8387 5.5248 13.8387ZM5.5248 9.63867C5.79181 9.63867 6.05282 9.71785 6.27482 9.86619C6.49683 10.0145 6.66986 10.2254 6.77204 10.4721C6.87422 10.7187 6.90095 10.9902 6.84886 11.252C6.79677 11.5139 6.6682 11.7545 6.4794 11.9433C6.2906 12.1321 6.05005 12.2606 5.78818 12.3127C5.5263 12.3648 5.25486 12.3381 5.00818 12.2359C4.7615 12.1337 4.55066 11.9607 4.40232 11.7387C4.25398 11.5167 4.1748 11.2557 4.1748 10.9887C4.1748 10.6306 4.31704 10.2873 4.57021 10.0341C4.82338 9.78091 5.16676 9.63867 5.5248 9.63867Z" fill="#03FF37"/>
<path d="M19.525 13.8387C20.0887 13.8387 20.6397 13.6715 21.1084 13.3584C21.5771 13.0452 21.9424 12.6001 22.1581 12.0793C22.3738 11.5586 22.4303 10.9855 22.3203 10.4327C22.2103 9.87982 21.9389 9.372 21.5403 8.97342C21.1417 8.57484 20.6339 8.3034 20.0811 8.19344C19.5282 8.08347 18.9552 8.13991 18.4344 8.35562C17.9136 8.57133 17.4685 8.93662 17.1554 9.4053C16.8422 9.87398 16.675 10.425 16.675 10.9887C16.675 11.7445 16.9753 12.4694 17.5098 13.0039C18.0443 13.5384 18.7692 13.8387 19.525 13.8387ZM19.525 9.63867C19.7921 9.63867 20.0531 9.71785 20.2751 9.86619C20.4971 10.0145 20.6701 10.2254 20.7723 10.4721C20.8745 10.7187 20.9012 10.9902 20.8491 11.252C20.797 11.5139 20.6684 11.7545 20.4796 11.9433C20.2908 12.1321 20.0503 12.2606 19.7884 12.3127C19.5265 12.3648 19.2551 12.3381 19.0084 12.2359C18.7617 12.1337 18.5509 11.9607 18.4026 11.7387C18.2542 11.5167 18.175 11.2557 18.175 10.9887C18.175 10.6306 18.3173 10.2873 18.5705 10.0341C18.8236 9.78091 19.167 9.63867 19.525 9.63867Z" fill="#03FF37"/>
<path d="M19.6249 15.3431C18.9674 15.3474 18.3214 15.5158 17.7454 15.8328C17.1978 14.9659 16.443 14.2489 15.5491 13.7465C14.6552 13.2441 13.6504 12.9721 12.6251 12.9551C11.5999 12.9721 10.595 13.2441 9.70113 13.7465C8.80724 14.2489 8.05247 14.9659 7.50488 15.8328C6.92888 15.5158 6.28287 15.3474 5.62538 15.3431C4.44555 15.4006 3.33641 15.9226 2.5401 16.7951C1.74379 17.6676 1.32499 18.8197 1.37513 19.9998C1.37513 20.1987 1.45415 20.3895 1.5948 20.5302C1.73545 20.6708 1.92622 20.7498 2.12513 20.7498C2.32404 20.7498 2.51481 20.6708 2.65546 20.5302C2.79611 20.3895 2.87513 20.1987 2.87513 19.9998C2.82597 19.2176 3.08712 18.4476 3.60196 17.8566C4.1168 17.2657 4.84382 16.9015 5.62538 16.8431C6.03984 16.8463 6.44674 16.9544 6.80813 17.1573C6.45466 18.0481 6.2737 18.998 6.27488 19.9563C6.27488 20.1552 6.3539 20.346 6.49455 20.4867C6.6352 20.6273 6.82597 20.7063 7.02488 20.7063C7.22379 20.7063 7.41456 20.6273 7.55521 20.4867C7.69586 20.346 7.77488 20.1552 7.77488 19.9563C7.77488 16.9226 9.94988 14.4551 12.6251 14.4551C15.3004 14.4551 17.4754 16.9226 17.4754 19.9563C17.4754 20.1552 17.5544 20.346 17.695 20.4867C17.8357 20.6273 18.0265 20.7063 18.2254 20.7063C18.4243 20.7063 18.6151 20.6273 18.7557 20.4867C18.8964 20.346 18.9754 20.1552 18.9754 19.9563C18.9766 18.998 18.7956 18.0481 18.4421 17.1573C18.8035 16.9544 19.2104 16.8463 19.6249 16.8431C20.4064 16.9015 21.1335 17.2657 21.6483 17.8566C22.1631 18.4476 22.4243 19.2176 22.3751 19.9998C22.3751 20.1987 22.4541 20.3895 22.5948 20.5302C22.7354 20.6708 22.9262 20.7498 23.1251 20.7498C23.324 20.7498 23.5148 20.6708 23.6555 20.5302C23.7961 20.3895 23.8751 20.1987 23.8751 19.9998C23.9253 18.8197 23.5065 17.6676 22.7102 16.7951C21.9138 15.9226 20.8047 15.4006 19.6249 15.3431Z" fill="#03FF37"/>
</svg>
