<svg width="25" height="25" viewBox="0 0 25 25" fill="none" xmlns="http://www.w3.org/2000/svg">
<path d="M13.0991 13.8044C12.8802 13.7137 12.6282 13.7638 12.4607 13.9314L11.289 15.1031C11.0602 15.3319 11.0602 15.7028 11.289 15.9316C11.5178 16.1604 11.8888 16.1604 12.1175 15.9316L12.2891 15.76V17.8607C12.2891 18.1843 12.5514 18.4465 12.875 18.4465C13.1986 18.4465 13.4609 18.1842 13.4609 17.8607V14.3457C13.4608 14.1087 13.318 13.895 13.0991 13.8044Z" fill="#919191"/>
<path d="M22.2874 17.1027H16.9758V11.0018C16.9758 10.6783 16.7135 10.416 16.39 10.416H9.35991C9.03635 10.416 8.77405 10.6783 8.77405 11.0018V13.9311H3.46245C3.13889 13.9311 2.87659 14.1934 2.87659 14.5169V22.4143C2.87659 22.7379 3.13889 23.0002 3.46245 23.0002H22.2874C22.611 23.0002 22.8733 22.7379 22.8733 22.4143V17.6886C22.8733 17.365 22.611 17.1027 22.2874 17.1027ZM8.77405 21.8285H4.04827V15.1027H8.77405V21.8285ZM15.8042 21.8285H9.94573V11.5877H15.8041L15.8042 21.8285ZM21.7016 21.8285H16.9758V18.2744H21.7016V21.8285Z" fill="#919191"/>
<path d="M16.6347 3.87447L14.4189 3.52318L13.4449 1.34576C13.2413 0.890368 12.5957 0.883571 12.3814 1.33275L11.3553 3.48365L9.13162 3.77748C8.65138 3.84091 8.45123 4.42955 8.79404 4.77248L10.3868 6.36572L9.97732 8.58107C9.88924 9.05752 10.3872 9.42959 10.8193 9.20959L12.8267 8.18709L14.8071 9.26111C15.2333 9.49228 15.7408 9.13287 15.6651 8.65459L15.3129 6.42939L16.9464 4.87783C17.2978 4.54416 17.1136 3.95041 16.6347 3.87447ZM14.2828 5.79201C14.1429 5.92478 14.0774 6.11791 14.1076 6.30834L14.3223 7.66529L13.1147 7.01033C12.9453 6.91845 12.7414 6.91568 12.5695 7.00326L11.3453 7.62677L11.595 6.27588C11.6301 6.08631 11.5696 5.89158 11.4333 5.75517L10.462 4.78357L11.824 4.60361C12.0205 4.57763 12.1906 4.45404 12.276 4.27506L12.8931 2.98146L13.479 4.29127C13.5599 4.47197 13.7265 4.59966 13.922 4.63068L15.2789 4.8458L14.2828 5.79201Z" fill="#919191"/>
</svg>
