<svg width="25" height="25" viewBox="0 0 25 25" fill="none" xmlns="http://www.w3.org/2000/svg">
<path d="M8.305 3.969C8.66 3.615 8.951 3.5 9.437 3.5H15.563C16.049 3.5 16.341 3.615 16.695 3.969L21.031 8.305C21.385 8.659 21.5 8.951 21.5 9.437V15.563C21.5 16.063 21.375 16.351 21.031 16.695L16.695 21.031C16.341 21.385 16.049 21.5 15.563 21.5H9.437C8.937 21.5 8.649 21.375 8.305 21.031L3.97 16.695C3.615 16.34 3.5 16.049 3.5 15.563V9.437C3.5 8.937 3.625 8.649 3.969 8.305L8.305 3.969Z" stroke="#919191" stroke-width="1.5" stroke-linecap="round" stroke-linejoin="round"/>
<path d="M12.5 16.5V11.5H12M12 16.5H13M12.5 9V8.5" stroke="#919191" stroke-width="1.5" stroke-linecap="round" stroke-linejoin="round"/>
</svg>
