<svg width="18" height="20" viewBox="0 0 18 20" fill="none" xmlns="http://www.w3.org/2000/svg">
<path d="M4.21313 5.4984C4.21313 6.69145 4.68707 7.83564 5.53069 8.67925C6.3743 9.52287 7.51849 9.99681 8.71154 9.99681C9.90459 9.99681 11.0488 9.52287 11.8924 8.67925C12.736 7.83564 13.2099 6.69145 13.2099 5.4984C13.2099 4.30535 12.736 3.16117 11.8924 2.31755C11.0488 1.47394 9.90459 1 8.71154 1C7.51849 1 6.3743 1.47394 5.53069 2.31755C4.68707 3.16117 4.21313 4.30535 4.21313 5.4984Z" stroke="#03FF37" stroke-width="1.5" stroke-linecap="round" stroke-linejoin="round"/>
<path d="M1 18.9928C1 16.9476 1.81247 14.9861 3.25866 13.5399C4.70486 12.0937 6.66632 11.2813 8.71155 11.2812C10.7568 11.2813 12.7182 12.0937 14.1644 13.5399C15.6106 14.9861 16.4231 16.9476 16.4231 18.9928H1Z" stroke="#03FF37" stroke-width="1.5" stroke-linecap="round" stroke-linejoin="round"/>
</svg>
